<svg data-v-fde0c5aa="" xmlns="http://www.w3.org/2000/svg" viewBox="0 0 300 300" class="iconLeft"><!----><defs data-v-fde0c5aa=""><!----></defs><rect data-v-fde0c5aa="" fill="#0B345A" x="0" y="0" width="300px" height="300px" class="logo-background-square"></rect><defs data-v-fde0c5aa=""><!----></defs><g data-v-fde0c5aa="" id="626a64d2-70f5-4ec8-9ef7-0ce523f55be4" fill="#22C4D6" transform="matrix(1.6419013343704485,0,0,1.6419013343704485,112.29456196502753,134.4511939250769)"><path d="M0.62 8.90L0.62 8.90L0.62 8.90Q0.62 7.38 1.20 6.16L1.20 6.16L1.20 6.16Q1.79 4.94 3.02 4.19L3.02 4.19L3.02 4.19Q4.24 3.44 5.92 3.44L5.92 3.44L5.92 3.44Q6.78 3.44 7.64 3.70L7.64 3.70L7.64 3.70Q8.51 3.95 9.03 4.20L9.03 4.20L9.55 4.47L9.55 4.47Q9.59 4.47 9.69 4.40L9.69 4.40L9.69 4.40Q9.79 4.33 9.84 4.33L9.84 4.33L9.84 4.33Q9.91 4.33 9.98 4.38L9.98 4.38L9.98 4.38Q10.05 4.44 10.05 4.55L10.05 4.55L10.05 4.55Q10.07 4.96 10.12 5.41L10.12 5.41L10.12 5.41Q10.16 5.87 10.21 6.16L10.21 6.16L10.21 6.16Q10.25 6.45 10.25 6.51L10.25 6.51L10.25 6.51Q10.25 6.76 10.08 6.76L10.08 6.76L10.08 6.76Q9.95 6.76 9.84 6.57L9.84 6.57L9.84 6.57Q8.48 4.02 5.92 4.02L5.92 4.02L5.92 4.02Q4.17 4.02 3.05 5.14L3.05 5.14L3.05 5.14Q1.93 6.26 1.93 8.06L1.93 8.06L1.93 8.06Q1.93 9.06 2.19 9.93L2.19 9.93L2.19 9.93Q2.45 10.79 2.98 11.51L2.98 11.51L2.98 11.51Q3.50 12.24 4.42 12.66L4.42 12.66L4.42 12.66Q5.35 13.08 6.58 13.08L6.58 13.08L6.58 13.08Q8.60 13.08 9.97 10.98L9.97 10.98L9.97 10.98Q10.02 10.88 10.18 10.88L10.18 10.88L10.18 10.88Q10.30 10.88 10.30 11.07L10.30 11.07L10.30 11.07Q10.30 11.23 10.26 11.49L10.26 11.49L10.26 11.49Q10.21 11.75 10.14 12.06L10.14 12.06L10.14 12.06Q10.07 12.38 10.05 12.45L10.05 12.45L10.05 12.45Q10.02 12.60 9.83 12.70L9.83 12.70L9.83 12.70Q9.07 13.06 8.64 13.24L8.64 13.24L8.64 13.24Q8.22 13.43 7.56 13.57L7.56 13.57L7.56 13.57Q6.90 13.72 6.22 13.72L6.22 13.72L6.22 13.72Q5.00 13.72 4.02 13.43L4.02 13.43L4.02 13.43Q3.04 13.13 2.42 12.66L2.42 12.66L2.42 12.66Q1.79 12.18 1.37 11.54L1.37 11.54L1.37 11.54Q0.95 10.91 0.78 10.25L0.78 10.25L0.78 10.25Q0.62 9.60 0.62 8.90ZM11.44 10.60L11.44 10.60L11.44 10.60Q11.44 9.31 12.31 8.36L12.31 8.36L12.31 8.36Q13.19 7.41 14.74 7.41L14.74 7.41L14.74 7.41Q16.06 7.41 17.03 8.23L17.03 8.23L17.03 8.23Q18.00 9.06 18.00 10.51L18.00 10.51L18.00 10.51Q18.00 12.00 17.00 12.84L17.00 12.84L17.00 12.84Q16.00 13.69 14.64 13.69L14.64 13.69L14.64 13.69Q13.13 13.69 12.29 12.77L12.29 12.77L12.29 12.77Q11.44 11.86 11.44 10.60ZM12.54 10.12L12.54 10.12L12.54 10.12Q12.54 11.56 13.31 12.42L13.31 12.42L13.31 12.42Q14.08 13.27 15.06 13.27L15.06 13.27L15.06 13.27Q15.86 13.27 16.41 12.66L16.41 12.66L16.41 12.66Q16.95 12.05 16.95 10.93L16.95 10.93L16.95 10.93Q16.95 9.70 16.28 8.74L16.28 8.74L16.28 8.74Q15.61 7.78 14.41 7.78L14.41 7.78L14.41 7.78Q13.68 7.78 13.11 8.36L13.11 8.36L13.11 8.36Q12.54 8.93 12.54 10.12ZM19.10 10.71L19.10 10.71L19.10 10.71Q19.10 9.35 20.00 8.33L20.00 8.33L20.00 8.33Q20.90 7.31 22.50 7.31L22.50 7.31L22.50 7.31Q22.86 7.31 23.46 7.51L23.46 7.51L23.46 7.51Q24.05 7.71 24.09 7.71L24.09 7.71L24.09 7.71Q24.16 7.71 24.16 7.21L24.16 7.21L24.16 7.21Q24.16 6.15 24.18 5.82L24.18 5.82L24.18 5.82Q24.19 5.49 24.19 5.40L24.19 5.40L24.19 5.40Q24.19 4.96 24.18 4.75L24.18 4.75L24.18 4.75Q24.16 4.54 24.10 4.28L24.10 4.28L24.10 4.28Q24.04 4.03 23.88 3.93L23.88 3.93L23.88 3.93Q23.72 3.84 23.45 3.84L23.45 3.84L23.30 3.84L23.30 3.84Q23.09 3.84 23.04 3.82L23.04 3.82L23.04 3.82Q23.00 3.81 23.00 3.72L23.00 3.72L23.00 3.71L23.00 3.71Q23.00 3.61 23.14 3.56L23.14 3.56L23.14 3.56Q23.28 3.51 23.71 3.38L23.71 3.38L23.71 3.38Q24.14 3.25 24.58 3.04L24.58 3.04L24.58 3.04Q24.63 3.02 24.75 2.96L24.75 2.96L24.75 2.96Q24.88 2.90 24.97 2.86L24.97 2.86L24.97 2.86Q25.06 2.83 25.13 2.83L25.13 2.83L25.13 2.83Q25.30 2.83 25.30 3.11L25.30 3.11L25.30 3.11Q25.30 3.15 25.21 4.30L25.21 4.30L25.21 4.30Q25.12 5.45 25.12 6.15L25.12 6.15L25.12 6.15Q25.12 7.59 25.10 9.27L25.10 9.27L25.10 9.27Q25.09 10.95 25.09 11.26L25.09 11.26L25.09 11.26Q25.09 12.21 25.18 12.53L25.18 12.53L25.18 12.53Q25.27 12.85 25.58 12.95L25.58 12.95L25.58 12.95Q25.62 12.96 25.82 13.00L25.82 13.00L25.82 13.00Q26.01 13.03 26.10 13.08L26.10 13.08L26.10 13.08Q26.18 13.13 26.18 13.24L26.18 13.24L26.18 13.24Q26.18 13.41 25.10 13.50L25.10 13.50L25.10 13.50Q24.88 13.51 24.58 13.57L24.58 13.57L24.58 13.57Q24.29 13.64 24.22 13.64L24.22 13.64L24.22 13.64Q24.07 13.64 24.07 13.48L24.07 13.48L24.07 13.48Q24.07 13.44 24.05 13.27L24.05 13.27L24.05 13.27Q24.02 13.10 24.02 12.96L24.02 12.96L24.02 12.96Q24.02 12.73 23.90 12.73L23.90 12.73L23.90 12.73Q23.86 12.73 23.70 12.87L23.70 12.87L23.70 12.87Q23.53 13.01 23.32 13.18L23.32 13.18L23.32 13.18Q23.11 13.36 22.71 13.50L22.71 13.50L22.71 13.50Q22.32 13.64 21.85 13.64L21.85 13.64L21.85 13.64Q20.55 13.64 19.82 12.77L19.82 12.77L19.82 12.77Q19.10 11.91 19.10 10.71ZM20.10 10.05L20.10 10.05L20.10 10.05Q20.10 11.12 20.76 12.01L20.76 12.01L20.76 12.01Q21.41 12.91 22.43 12.91L22.43 12.91L22.43 12.91Q23.06 12.91 23.58 12.59L23.58 12.59L23.58 12.59Q24.09 12.26 24.09 11.80L24.09 11.80L24.11 9.41L24.11 9.41Q24.11 8.55 23.72 8.33L23.72 8.33L23.72 8.33Q22.68 7.71 22.05 7.71L22.05 7.71L22.05 7.71Q21.14 7.71 20.62 8.38L20.62 8.38L20.62 8.38Q20.10 9.04 20.10 10.05ZM26.60 7.67L26.60 7.67L26.60 7.67Q26.60 7.50 26.88 7.50L26.88 7.50L26.88 7.50Q27.27 7.50 27.68 7.52L27.68 7.52L27.68 7.52Q28.10 7.53 28.38 7.53L28.38 7.53L28.38 7.53Q28.62 7.53 28.80 7.52L28.80 7.52L28.80 7.52Q28.99 7.50 29.18 7.50L29.18 7.50L29.18 7.50Q29.27 7.50 29.35 7.55L29.35 7.55L29.35 7.55Q29.43 7.60 29.43 7.66L29.43 7.66L29.43 7.66Q29.43 7.91 29.09 7.91L29.09 7.91L28.88 7.91L28.88 7.91Q28.66 7.91 28.66 8.30L28.66 8.30L28.66 8.30Q28.66 8.61 29.26 9.94L29.26 9.94L29.26 9.94Q29.30 10.05 29.33 10.11L29.33 10.11L29.33 10.11Q29.36 10.18 29.41 10.28L29.41 10.28L29.41 10.28Q29.46 10.39 29.50 10.49L29.50 10.49L29.50 10.49Q29.58 10.67 29.78 11.12L29.78 11.12L29.78 11.12Q29.97 11.56 30.08 11.77L30.08 11.77L30.08 11.77Q30.18 11.98 30.24 11.98L30.24 11.98L30.24 11.98Q30.32 11.98 30.89 10.37L30.89 10.37L30.89 10.37Q31.46 8.76 31.46 8.43L31.46 8.43L31.46 8.43Q31.46 8.15 31.32 8.02L31.32 8.02L31.32 8.02Q31.19 7.90 31.02 7.90L31.02 7.90L31.02 7.90Q30.86 7.91 30.72 7.86L30.72 7.86L30.72 7.86Q30.59 7.81 30.59 7.66L30.59 7.66L30.59 7.66Q30.59 7.49 30.86 7.49L30.86 7.49L30.86 7.49Q31.07 7.49 31.41 7.50L31.41 7.50L31.41 7.50Q31.75 7.50 31.86 7.50L31.86 7.50L31.86 7.50Q32.00 7.50 32.35 7.50L32.35 7.50L32.35 7.50Q32.69 7.49 32.73 7.49L32.73 7.49L32.73 7.49Q33.03 7.49 33.03 7.67L33.03 7.67L33.03 7.67Q33.03 7.81 32.78 7.87L32.78 7.87L32.78 7.87Q32.54 7.94 32.45 8.05L32.45 8.05L32.45 8.05Q32.23 8.37 31.70 9.81L31.70 9.81L30.45 13.13L30.45 13.13Q30.30 13.54 30.14 13.96L30.14 13.96L30.14 13.96Q29.99 14.39 29.89 14.66L29.89 14.66L29.89 14.66Q29.79 14.92 29.69 15.19L29.69 15.19L29.69 15.19Q29.60 15.46 29.54 15.60L29.54 15.60L29.54 15.60Q29.48 15.75 29.42 15.88L29.42 15.88L29.42 15.88Q29.36 16.00 29.31 16.05L29.31 16.05L29.31 16.05Q29.26 16.10 29.22 16.10L29.22 16.10L29.22 16.10Q29.20 16.10 29.17 16.10L29.17 16.10L29.17 16.10Q29.13 16.10 28.99 16.11L28.99 16.11L28.99 16.11Q28.85 16.11 28.57 16.11L28.57 16.11L28.57 16.11Q28.31 16.11 28.31 15.93L28.31 15.93L28.31 15.93Q28.31 15.89 28.62 15.50L28.62 15.50L28.62 15.50Q28.94 15.11 29.26 14.53L29.26 14.53L29.26 14.53Q29.58 13.96 29.58 13.48L29.58 13.48L29.58 13.48Q29.58 13.08 28.78 11.34L28.78 11.34L28.78 11.34Q27.99 9.60 27.40 8.50L27.40 8.50L27.40 8.50Q27.24 8.22 27.08 8.06L27.08 8.06L27.08 8.06Q26.92 7.91 26.82 7.90L26.82 7.90L26.82 7.90Q26.73 7.88 26.66 7.84L26.66 7.84L26.66 7.84Q26.60 7.80 26.60 7.67ZM36.55 3.70L36.55 3.70L36.55 3.70Q36.55 3.47 36.96 3.47L36.96 3.47L39.28 3.47L39.28 3.47Q39.61 3.47 40.03 3.45L40.03 3.45L40.03 3.45Q40.45 3.43 40.68 3.43L40.68 3.43L40.68 3.43Q41.94 3.43 42.84 4.07L42.84 4.07L42.84 4.07Q43.74 4.70 43.74 5.78L43.74 5.78L43.74 5.78Q43.74 6.50 43.46 7.03L43.46 7.03L43.46 7.03Q43.19 7.57 42.86 7.81L42.86 7.81L42.86 7.81Q42.53 8.05 42.26 8.22L42.26 8.22L42.26 8.22Q41.99 8.40 41.99 8.46L41.99 8.46L41.99 8.46Q41.99 8.62 43.16 10.27L43.16 10.27L43.16 10.27Q44.34 11.91 44.77 12.38L44.77 12.38L44.77 12.38Q45.30 13.03 46.06 13.03L46.06 13.03L46.06 13.03Q46.26 13.03 46.26 13.20L46.26 13.20L46.26 13.20Q46.26 13.41 46.09 13.48L46.09 13.48L46.09 13.48Q45.92 13.55 45.22 13.55L45.22 13.55L45.22 13.55Q44.56 13.55 44.02 13.23L44.02 13.23L44.02 13.23Q43.32 12.82 41.65 10.09L41.65 10.09L41.65 10.09Q41.55 9.94 41.51 9.87L41.51 9.87L41.51 9.87Q40.84 8.78 40.47 8.78L40.47 8.78L40.18 8.78L39.33 8.78L39.33 8.78Q39.16 8.78 39.12 8.92L39.12 8.92L39.12 8.92Q39.09 9.06 39.09 9.77L39.09 9.77L39.09 9.77Q39.09 10.44 39.09 10.88L39.09 10.88L39.09 10.88Q39.09 11.31 39.09 11.43L39.09 11.43L39.09 11.43Q39.10 11.55 39.10 11.63L39.10 11.63L39.10 11.63Q39.10 11.70 39.10 11.75L39.10 11.75L39.10 11.75Q39.10 12.32 39.37 12.63L39.37 12.63L39.37 12.63Q39.63 12.95 39.96 13.00L39.96 13.00L39.96 13.00Q40.29 13.05 40.56 13.11L40.56 13.11L40.56 13.11Q40.82 13.17 40.82 13.31L40.82 13.31L40.82 13.31Q40.82 13.54 40.57 13.54L40.57 13.54L40.57 13.54Q40.56 13.54 39.61 13.49L39.61 13.49L39.61 13.49Q38.65 13.44 38.57 13.44L38.57 13.44L38.57 13.44Q38.16 13.44 37.60 13.47L37.60 13.47L37.60 13.47Q37.04 13.50 37.03 13.50L37.03 13.50L37.03 13.50Q36.74 13.50 36.74 13.27L36.74 13.27L36.74 13.27Q36.74 13.12 36.92 13.05L36.92 13.05L36.92 13.05Q37.10 12.99 37.32 12.96L37.32 12.96L37.32 12.96Q37.55 12.94 37.73 12.66L37.73 12.66L37.73 12.66Q37.91 12.38 37.91 11.86L37.91 11.86L37.91 11.86Q37.91 11.49 37.92 9.90L37.92 9.90L37.92 9.90Q37.93 8.30 37.93 7.45L37.93 7.45L37.93 7.45Q37.93 6.58 37.92 5.86L37.92 5.86L37.92 5.86Q37.91 5.14 37.91 5.08L37.91 5.08L37.91 5.08Q37.91 4.56 37.70 4.29L37.70 4.29L37.70 4.29Q37.49 4.02 37.23 3.98L37.23 3.98L37.23 3.98Q36.97 3.95 36.76 3.89L36.76 3.89L36.76 3.89Q36.55 3.84 36.55 3.70ZM39.09 5.54L39.09 5.94L39.09 5.94Q39.09 7.38 39.10 7.72L39.10 7.72L39.10 7.72Q39.12 8.06 39.20 8.12L39.20 8.12L39.20 8.12Q39.41 8.25 39.80 8.25L39.80 8.25L39.94 8.25L40.35 8.25L40.35 8.25Q41.54 8.25 42.05 7.70L42.05 7.70L42.05 7.70Q42.56 7.15 42.56 6.30L42.56 6.30L42.56 6.30Q42.56 5.43 41.88 4.72L41.88 4.72L41.88 4.72Q41.20 4.00 39.83 4.00L39.83 4.00L39.83 4.00Q39.31 4.00 39.20 4.28L39.20 4.28L39.20 4.28Q39.09 4.55 39.09 5.54L39.09 5.54ZM46.47 10.72L46.47 10.72L46.47 10.72Q46.47 9.32 47.26 8.36L47.26 8.36L47.26 8.36Q48.05 7.39 49.31 7.39L49.31 7.39L49.31 7.39Q49.90 7.39 50.38 7.60L50.38 7.60L50.38 7.60Q50.86 7.81 51.13 8.11L51.13 8.11L51.13 8.11Q51.39 8.41 51.58 8.75L51.58 8.75L51.58 8.75Q51.76 9.09 51.82 9.30L51.82 9.30L51.82 9.30Q51.88 9.52 51.88 9.62L51.88 9.62L51.88 9.62Q51.88 9.87 51.31 9.87L51.31 9.87L48.13 9.87L47.71 9.87L47.71 9.87Q47.60 9.87 47.58 9.89L47.58 9.89L47.58 9.89Q47.56 9.91 47.56 10.02L47.56 10.02L47.56 10.02Q47.56 11.34 48.27 12.10L48.27 12.10L48.27 12.10Q48.97 12.85 49.92 12.85L49.92 12.85L49.92 12.85Q50.51 12.85 51.12 12.54L51.12 12.54L51.12 12.54Q51.73 12.22 51.76 12.22L51.76 12.22L51.76 12.22Q51.90 12.22 51.90 12.35L51.90 12.35L51.90 12.35Q51.90 12.40 51.80 12.55L51.80 12.55L51.80 12.55Q51.70 12.70 51.49 12.89L51.49 12.89L51.49 12.89Q51.28 13.09 51.00 13.27L51.00 13.27L51.00 13.27Q50.72 13.45 50.30 13.58L50.30 13.58L50.30 13.58Q49.88 13.71 49.42 13.71L49.42 13.71L49.42 13.71Q48.19 13.71 47.33 12.95L47.33 12.95L47.33 12.95Q46.47 12.19 46.47 10.72ZM47.64 9.34L47.64 9.34L47.64 9.34Q47.64 9.53 47.82 9.53L47.82 9.53L47.82 9.53Q48.20 9.53 49.21 9.49L49.21 9.49L49.21 9.49Q50.22 9.45 50.29 9.45L50.29 9.45L50.29 9.45Q50.48 9.45 50.53 9.41L50.53 9.41L50.53 9.41Q50.58 9.38 50.58 9.28L50.58 9.28L50.58 9.28Q50.58 8.86 50.19 8.30L50.19 8.30L50.19 8.30Q49.80 7.74 49.07 7.74L49.07 7.74L49.07 7.74Q48.40 7.74 48.02 8.29L48.02 8.29L48.02 8.29Q47.64 8.85 47.64 9.34ZM52.95 8.11L52.95 8.11L52.95 8.11Q52.95 8.04 52.98 7.99L52.98 7.99L52.98 7.99Q53.02 7.95 53.12 7.90L53.12 7.90L53.12 7.90Q53.23 7.85 53.34 7.82L53.34 7.82L53.34 7.82Q53.45 7.78 53.67 7.71L53.67 7.71L53.67 7.71Q53.89 7.63 54.08 7.55L54.08 7.55L54.08 7.55Q54.24 7.48 54.37 7.42L54.37 7.42L54.37 7.42Q54.50 7.36 54.54 7.34L54.54 7.34L54.54 7.34Q54.59 7.32 54.64 7.31L54.64 7.31L54.64 7.31Q54.70 7.29 54.78 7.29L54.78 7.29L54.78 7.29Q54.99 7.29 54.99 7.56L54.99 7.56L54.99 7.56Q54.99 7.63 54.95 7.87L54.95 7.87L54.95 7.87Q54.91 8.11 54.91 8.23L54.91 8.23L54.91 12.07L54.91 12.07Q54.91 12.49 55.04 12.73L55.04 12.73L55.04 12.73Q55.17 12.96 55.32 13.02L55.32 13.02L55.32 13.02Q55.47 13.08 55.69 13.09L55.69 13.09L55.69 13.09Q55.86 13.10 55.92 13.11L55.92 13.11L55.92 13.11Q55.97 13.12 56.04 13.16L56.04 13.16L56.04 13.16Q56.11 13.20 56.11 13.30L56.11 13.30L56.11 13.30Q56.11 13.54 55.87 13.54L55.87 13.54L55.87 13.54Q55.85 13.54 55.78 13.53L55.78 13.53L55.78 13.53Q55.71 13.52 55.66 13.52L55.66 13.52L55.66 13.52Q55.36 13.52 55.15 13.51L55.15 13.51L55.15 13.51Q54.94 13.50 54.67 13.50L54.67 13.50L54.67 13.50Q54.33 13.50 54.04 13.51L54.04 13.51L54.04 13.51Q53.75 13.52 53.68 13.52L53.68 13.52L53.68 13.52Q53.12 13.52 53.12 13.34L53.12 13.34L53.12 13.34Q53.12 13.15 53.33 13.08L53.33 13.08L53.33 13.08Q53.34 13.08 53.38 13.06L53.38 13.06L53.38 13.06Q53.70 12.95 53.77 12.78L53.77 12.78L53.77 12.78Q53.90 12.50 53.90 10.56L53.90 10.56L53.90 9.32L53.90 9.32Q53.90 8.92 53.80 8.68L53.80 8.68L53.80 8.68Q53.70 8.44 53.62 8.39L53.62 8.39L53.62 8.39Q53.54 8.33 53.33 8.29L53.33 8.29L53.33 8.29Q53.13 8.26 53.09 8.25L53.09 8.25L53.09 8.25Q52.95 8.19 52.95 8.11ZM53.75 5.18L53.75 5.18L53.75 5.18Q53.75 5.01 53.99 4.71L53.99 4.71L53.99 4.71Q54.24 4.41 54.45 4.41L54.45 4.41L54.45 4.41Q54.67 4.41 54.88 4.70L54.88 4.70L54.88 4.70Q55.09 4.98 55.09 5.21L55.09 5.21L55.09 5.21Q55.09 5.43 54.82 5.70L54.82 5.70L54.82 5.70Q54.56 5.98 54.43 5.98L54.43 5.98L54.43 5.98Q54.15 5.98 53.95 5.68L53.95 5.68L53.95 5.68Q53.75 5.39 53.75 5.18ZM56.90 10.75L56.90 10.75L56.90 10.75Q56.90 9.41 57.80 8.42L57.80 8.42L57.80 8.42Q58.70 7.43 60.14 7.43L60.14 7.43L60.14 7.43Q60.63 7.43 61.20 7.57L61.20 7.57L61.20 7.57Q61.77 7.71 61.78 7.90L61.78 7.90L61.78 7.90Q61.81 8.23 61.81 8.55L61.81 8.55L61.81 8.55Q61.81 9.17 61.66 9.17L61.66 9.17L61.66 9.17Q61.57 9.17 61.51 9.11L61.51 9.11L61.51 9.11Q61.45 9.04 61.37 8.92L61.37 8.92L61.37 8.92Q61.29 8.79 61.19 8.72L61.19 8.72L61.19 8.72Q60.89 8.46 60.36 8.22L60.36 8.22L60.36 8.22Q59.84 7.98 59.33 7.98L59.33 7.98L59.33 7.98Q59.23 7.98 59.08 8.03L59.08 8.03L59.08 8.03Q58.93 8.08 58.72 8.24L58.72 8.24L58.72 8.24Q58.52 8.40 58.35 8.64L58.35 8.64L58.35 8.64Q58.18 8.89 58.07 9.32L58.07 9.32L58.07 9.32Q57.95 9.76 57.95 10.30L57.95 10.30L57.95 10.30Q57.95 11.40 58.64 12.20L58.64 12.20L58.64 12.20Q59.33 13.01 60.34 13.01L60.34 13.01L60.34 13.01Q60.83 13.01 61.25 12.82L61.25 12.82L61.25 12.82Q61.67 12.64 61.90 12.46L61.90 12.46L61.90 12.46Q62.13 12.28 62.19 12.28L62.19 12.28L62.19 12.28Q62.34 12.28 62.34 12.42L62.34 12.42L62.34 12.42Q62.34 12.46 62.25 12.60L62.25 12.60L62.25 12.60Q62.16 12.74 61.96 12.94L61.96 12.94L61.96 12.94Q61.75 13.13 61.47 13.31L61.47 13.31L61.47 13.31Q61.19 13.48 60.75 13.61L60.75 13.61L60.75 13.61Q60.30 13.73 59.79 13.73L59.79 13.73L59.79 13.73Q58.48 13.73 57.69 12.94L57.69 12.94L57.69 12.94Q56.90 12.14 56.90 10.75ZM62.89 3.68L62.89 3.68L62.89 3.68Q62.89 3.57 63.04 3.49L63.04 3.49L63.04 3.49Q63.18 3.42 63.46 3.35L63.46 3.35L63.46 3.35Q63.73 3.28 63.85 3.22L63.85 3.22L63.85 3.22Q64.74 2.83 64.86 2.83L64.86 2.83L64.86 2.83Q65.04 2.83 65.04 3.15L65.04 3.15L65.04 3.15Q65.04 3.22 65.00 3.49L65.00 3.49L65.00 3.49Q64.95 3.75 64.95 4.02L64.95 4.02L64.95 4.02Q64.93 5.28 64.91 6.15L64.91 6.15L64.91 6.15Q64.89 7.03 64.88 7.33L64.88 7.33L64.88 7.33Q64.86 7.63 64.86 7.83L64.86 7.83L64.86 7.83Q64.85 8.02 64.85 8.13L64.85 8.13L64.85 8.13Q64.85 8.40 64.96 8.40L64.96 8.40L64.96 8.40Q64.99 8.40 65.25 8.14L65.25 8.14L65.25 8.14Q65.51 7.88 65.96 7.62L65.96 7.62L65.96 7.62Q66.42 7.36 66.93 7.36L66.93 7.36L66.93 7.36Q68.07 7.36 68.70 8.04L68.70 8.04L68.70 8.04Q69.33 8.71 69.33 10.12L69.33 10.12L69.33 12.15L69.33 12.15Q69.33 12.29 69.36 12.45L69.36 12.45L69.36 12.45Q69.38 12.61 69.50 12.78L69.50 12.78L69.50 12.78Q69.61 12.95 69.79 12.96L69.79 12.96L69.79 12.96Q70.55 13.03 70.55 13.26L70.55 13.26L70.55 13.26Q70.55 13.48 70.11 13.48L70.11 13.48L70.11 13.48Q70.04 13.48 69.57 13.45L69.57 13.45L69.57 13.45Q69.10 13.41 68.94 13.41L68.94 13.41L68.94 13.41Q68.81 13.41 68.36 13.43L68.36 13.43L68.36 13.43Q67.90 13.45 67.86 13.45L67.86 13.45L67.86 13.45Q67.54 13.45 67.54 13.31L67.54 13.31L67.54 13.31Q67.54 13.16 67.66 13.11L67.66 13.11L67.66 13.11Q67.77 13.06 67.91 13.06L67.91 13.06L67.91 13.06Q68.05 13.06 68.17 12.91L68.17 12.91L68.17 12.91Q68.29 12.75 68.29 12.43L68.29 12.43L68.29 12.43Q68.29 12.38 68.30 12.29L68.30 12.29L68.30 12.29Q68.31 12.21 68.31 12.06L68.31 12.06L68.31 12.06Q68.31 11.91 68.31 11.41L68.31 11.41L68.31 11.41Q68.32 10.91 68.32 10.11L68.32 10.11L68.32 10.11Q68.32 9.25 67.80 8.63L67.80 8.63L67.80 8.63Q67.28 8.01 66.58 8.01L66.58 8.01L66.58 8.01Q65.93 8.01 65.23 8.55L65.23 8.55L65.23 8.55Q64.97 8.75 64.90 9.19L64.90 9.19L64.90 9.19Q64.83 9.63 64.83 11.14L64.83 11.14L64.83 11.47L64.83 11.47Q64.83 12.10 64.94 12.48L64.94 12.48L64.94 12.48Q65.04 12.87 65.39 13.02L65.39 13.02L65.39 13.02Q65.51 13.06 65.70 13.08L65.70 13.08L65.70 13.08Q65.90 13.09 66.00 13.13L66.00 13.13L66.00 13.13Q66.11 13.16 66.11 13.27L66.11 13.27L66.11 13.27Q66.11 13.44 65.95 13.44L65.95 13.44L65.59 13.43L65.59 13.43Q65.23 13.41 64.86 13.39L64.86 13.39L64.86 13.39Q64.48 13.37 64.46 13.37L64.46 13.37L64.46 13.37Q64.36 13.37 63.97 13.40L63.97 13.40L63.97 13.40Q63.57 13.44 63.46 13.44L63.46 13.44L63.46 13.44Q63.28 13.44 63.19 13.42L63.19 13.42L63.19 13.42Q63.10 13.40 63.09 13.38L63.09 13.38L63.09 13.38Q63.08 13.36 63.08 13.30L63.08 13.30L63.08 13.30Q63.08 13.16 63.25 13.12L63.25 13.12L63.25 13.12Q63.66 13.01 63.78 12.76L63.78 12.76L63.78 12.76Q63.90 12.52 63.90 12.04L63.90 12.04L63.95 7.27L63.95 6.58L63.95 6.58Q63.95 4.47 63.84 4.13L63.84 4.13L63.84 4.13Q63.74 3.84 63.36 3.84L63.36 3.84L63.36 3.84Q63.24 3.84 63.18 3.84L63.18 3.84L63.13 3.82L63.13 3.82Q62.89 3.82 62.89 3.68ZM71.50 12.25L71.50 12.25L71.50 12.25Q71.50 11.75 71.71 11.40L71.71 11.40L71.71 11.40Q71.92 11.06 72.35 10.87L72.35 10.87L72.35 10.87Q72.77 10.68 73.23 10.57L73.23 10.57L73.23 10.57Q73.70 10.46 74.35 10.35L74.35 10.35L74.35 10.35Q74.44 10.33 74.48 10.32L74.48 10.32L74.48 10.32Q74.52 10.32 74.59 10.31L74.59 10.31L74.59 10.31Q74.66 10.30 74.72 10.29L74.72 10.29L74.72 10.29Q74.82 10.28 74.85 10.26L74.85 10.26L74.85 10.26Q74.89 10.25 74.92 10.20L74.92 10.20L74.92 10.20Q74.96 10.15 74.96 10.07L74.96 10.07L74.96 10.07Q74.96 9.93 74.97 9.68L74.97 9.68L74.97 9.68Q74.98 9.44 74.98 9.34L74.98 9.34L74.98 9.34Q74.98 8.54 74.52 8.18L74.52 8.18L74.52 8.18Q74.06 7.83 73.63 7.83L73.63 7.83L73.63 7.83Q72.62 7.83 72.62 8.67L72.62 8.67L72.62 8.67Q72.62 8.78 72.65 8.95L72.65 8.95L72.65 8.95Q72.67 9.11 72.67 9.17L72.67 9.17L72.67 9.17Q72.67 9.45 72.42 9.45L72.42 9.45L72.42 9.45Q72.34 9.45 72.21 9.43L72.21 9.43L72.21 9.43Q72.09 9.41 71.93 9.36L71.93 9.36L71.93 9.36Q71.76 9.31 71.66 9.19L71.66 9.19L71.66 9.19Q71.55 9.07 71.55 8.90L71.55 8.90L71.55 8.90Q71.55 8.36 72.29 7.86L72.29 7.86L72.29 7.86Q73.02 7.36 73.91 7.36L73.91 7.36L73.91 7.36Q74.51 7.36 74.93 7.50L74.93 7.50L74.93 7.50Q75.35 7.64 75.55 7.82L75.55 7.82L75.55 7.82Q75.75 7.99 75.87 8.28L75.87 8.28L75.87 8.28Q75.98 8.57 75.99 8.73L75.99 8.73L75.99 8.73Q76.01 8.89 76.01 9.13L76.01 9.13L76.01 9.13Q76.01 10.14 75.97 10.72L75.97 10.72L75.97 10.72Q75.94 11.30 75.94 11.73L75.94 11.73L75.94 11.73Q75.94 12.25 76.05 12.55L76.05 12.55L76.05 12.55Q76.16 12.85 76.31 12.94L76.31 12.94L76.31 12.94Q76.47 13.02 76.62 13.03L76.62 13.03L76.62 13.03Q76.78 13.05 76.89 13.09L76.89 13.09L76.89 13.09Q77.00 13.13 77.00 13.26L77.00 13.26L77.00 13.26Q77.00 13.55 76.12 13.55L76.12 13.55L76.12 13.55Q75.75 13.55 75.50 13.36L75.50 13.36L75.50 13.36Q75.24 13.16 75.12 12.97L75.12 12.97L75.12 12.97Q75.01 12.78 75.00 12.78L75.00 12.78L75.00 12.78Q74.98 12.78 74.89 12.87L74.89 12.87L74.89 12.87Q74.79 12.96 74.61 13.09L74.61 13.09L74.61 13.09Q74.44 13.22 74.22 13.34L74.22 13.34L74.22 13.34Q74.00 13.47 73.72 13.56L73.72 13.56L73.72 13.56Q73.43 13.65 73.15 13.65L73.15 13.65L73.15 13.65Q72.25 13.65 71.85 13.23L71.85 13.23L71.85 13.23Q71.50 12.88 71.50 12.25ZM72.59 12.04L72.59 12.04L72.59 12.04Q72.59 12.52 72.87 12.80L72.87 12.80L72.87 12.80Q73.15 13.09 73.67 13.09L73.67 13.09L73.67 13.09Q74.03 13.09 74.29 12.98L74.29 12.98L74.29 12.98Q74.55 12.87 74.68 12.73L74.68 12.73L74.68 12.73Q74.80 12.59 74.87 12.36L74.87 12.36L74.87 12.36Q74.94 12.12 74.95 12.00L74.95 12.00L74.95 12.00Q74.96 11.87 74.96 11.66L74.96 11.66L74.96 10.65L74.96 10.65Q74.96 10.53 74.86 10.53L74.86 10.53L74.86 10.53Q74.83 10.53 74.79 10.54L74.79 10.54L74.79 10.54Q74.75 10.56 74.72 10.56L74.72 10.56L74.72 10.56Q74.40 10.61 74.31 10.63L74.31 10.63L74.31 10.63Q74.23 10.64 73.92 10.71L73.92 10.71L73.92 10.71Q73.61 10.78 73.49 10.84L73.49 10.84L73.49 10.84Q73.37 10.89 73.16 11.01L73.16 11.01L73.16 11.01Q72.94 11.13 72.85 11.26L72.85 11.26L72.85 11.26Q72.76 11.40 72.67 11.60L72.67 11.60L72.67 11.60Q72.59 11.80 72.59 12.04ZM77.39 8.12L77.39 8.12L77.39 8.12Q77.39 7.97 77.58 7.89L77.58 7.89L77.58 7.89Q77.77 7.81 78.28 7.65L78.28 7.65L78.28 7.65Q78.79 7.49 79.24 7.28L79.24 7.28L79.24 7.28Q79.38 7.22 79.44 7.22L79.44 7.22L79.44 7.22Q79.62 7.22 79.62 7.50L79.62 7.50L79.62 7.50Q79.62 7.56 79.61 7.69L79.61 7.69L79.61 7.69Q79.60 7.81 79.60 7.88L79.60 7.88L79.60 7.88Q79.60 8.18 79.62 8.30L79.62 8.30L79.62 8.30Q79.63 8.43 79.65 8.46L79.65 8.46L79.65 8.46Q79.67 8.48 79.72 8.48L79.72 8.48L79.72 8.48Q79.74 8.48 79.93 8.20L79.93 8.20L79.93 8.20Q80.11 7.92 80.44 7.64L80.44 7.64L80.44 7.64Q80.78 7.35 81.19 7.35L81.19 7.35L81.19 7.35Q81.44 7.35 81.84 7.62L81.84 7.62L81.84 7.62Q82.14 7.81 82.14 8.02L82.14 8.02L82.14 8.02Q82.14 8.27 82.03 8.47L82.03 8.47L82.03 8.47Q81.91 8.67 81.81 8.74L81.81 8.74L81.81 8.74Q81.70 8.81 81.66 8.81L81.66 8.81L81.66 8.81Q81.55 8.81 81.26 8.64L81.26 8.64L81.26 8.64Q80.98 8.47 80.60 8.47L80.60 8.47L80.60 8.47Q80.22 8.47 79.89 8.78L79.89 8.78L79.89 8.78Q79.56 9.09 79.56 9.34L79.56 9.34L79.56 10.79L79.56 10.79Q79.56 11.30 79.57 11.61L79.57 11.61L79.57 11.61Q79.58 11.93 79.58 12.00L79.58 12.00L79.58 12.00Q79.58 12.08 79.58 12.14L79.58 12.14L79.58 12.14Q79.59 12.19 79.59 12.26L79.59 12.26L79.59 12.26Q79.59 12.56 79.79 12.77L79.79 12.77L79.79 12.77Q79.98 12.98 80.25 13.02L80.25 13.02L80.25 13.02Q80.33 13.03 80.46 13.05L80.46 13.05L80.46 13.05Q80.58 13.06 80.65 13.07L80.65 13.07L80.65 13.07Q80.72 13.08 80.81 13.10L80.81 13.10L80.81 13.10Q80.89 13.12 80.93 13.16L80.93 13.16L80.93 13.16Q80.96 13.20 80.96 13.26L80.96 13.26L80.96 13.26Q80.96 13.48 80.79 13.48L80.79 13.48L80.79 13.48Q80.56 13.48 80.15 13.45L80.15 13.45L80.15 13.45Q79.74 13.41 79.60 13.41L79.60 13.41L79.60 13.41Q79.16 13.41 78.68 13.45L78.68 13.45L78.68 13.45Q78.20 13.48 78.15 13.48L78.15 13.48L78.15 13.48Q78.01 13.48 77.94 13.45L77.94 13.45L77.94 13.45Q77.87 13.43 77.85 13.40L77.85 13.40L77.85 13.40Q77.84 13.37 77.84 13.31L77.84 13.31L77.84 13.31Q77.84 13.13 78.02 13.08L78.02 13.08L78.02 13.08Q78.39 12.99 78.46 12.72L78.46 12.72L78.46 12.72Q78.54 12.45 78.54 11.55L78.54 11.55L78.54 11.55Q78.54 10.64 78.53 10.05L78.53 10.05L78.53 10.05Q78.53 9.46 78.53 9.30L78.53 9.30L78.53 9.30Q78.53 9.14 78.52 9.04L78.52 9.04L78.52 9.04Q78.51 8.95 78.51 8.88L78.51 8.88L78.51 8.88Q78.51 8.72 78.47 8.62L78.47 8.62L78.47 8.62Q78.43 8.53 78.27 8.44L78.27 8.44L78.27 8.44Q78.11 8.36 77.81 8.36L77.81 8.36L77.81 8.36Q77.80 8.36 77.74 8.35L77.74 8.35L77.74 8.35Q77.69 8.34 77.66 8.34L77.66 8.34L77.66 8.34Q77.39 8.34 77.39 8.12ZM82.88 10.71L82.88 10.71L82.88 10.71Q82.88 9.35 83.78 8.33L83.78 8.33L83.78 8.33Q84.69 7.31 86.28 7.31L86.28 7.31L86.28 7.31Q86.65 7.31 87.24 7.51L87.24 7.51L87.24 7.51Q87.84 7.71 87.88 7.71L87.88 7.71L87.88 7.71Q87.95 7.71 87.95 7.21L87.95 7.21L87.95 7.21Q87.95 6.15 87.96 5.82L87.96 5.82L87.96 5.82Q87.98 5.49 87.98 5.40L87.98 5.40L87.98 5.40Q87.98 4.96 87.96 4.75L87.96 4.75L87.96 4.75Q87.95 4.54 87.89 4.28L87.89 4.28L87.89 4.28Q87.82 4.03 87.66 3.93L87.66 3.93L87.66 3.93Q87.50 3.84 87.23 3.84L87.23 3.84L87.08 3.84L87.08 3.84Q86.87 3.84 86.83 3.82L86.83 3.82L86.83 3.82Q86.79 3.81 86.79 3.72L86.79 3.72L86.79 3.71L86.79 3.71Q86.79 3.61 86.93 3.56L86.93 3.56L86.93 3.56Q87.07 3.51 87.49 3.38L87.49 3.38L87.49 3.38Q87.92 3.25 88.37 3.04L88.37 3.04L88.37 3.04Q88.41 3.02 88.54 2.96L88.54 2.96L88.54 2.96Q88.66 2.90 88.75 2.86L88.75 2.86L88.75 2.86Q88.84 2.83 88.91 2.83L88.91 2.83L88.91 2.83Q89.08 2.83 89.08 3.11L89.08 3.11L89.08 3.11Q89.08 3.15 88.99 4.30L88.99 4.30L88.99 4.30Q88.90 5.45 88.90 6.15L88.90 6.15L88.90 6.15Q88.90 7.59 88.89 9.27L88.89 9.27L88.89 9.27Q88.87 10.95 88.87 11.26L88.87 11.26L88.87 11.26Q88.87 12.21 88.96 12.53L88.96 12.53L88.96 12.53Q89.05 12.85 89.36 12.95L89.36 12.95L89.36 12.95Q89.40 12.96 89.60 13.00L89.60 13.00L89.60 13.00Q89.80 13.03 89.88 13.08L89.88 13.08L89.88 13.08Q89.96 13.13 89.96 13.24L89.96 13.24L89.96 13.24Q89.96 13.41 88.89 13.50L88.89 13.50L88.89 13.50Q88.66 13.51 88.37 13.57L88.37 13.57L88.37 13.57Q88.07 13.64 88.00 13.64L88.00 13.64L88.00 13.64Q87.85 13.64 87.85 13.48L87.85 13.48L87.85 13.48Q87.85 13.44 87.83 13.27L87.83 13.27L87.83 13.27Q87.81 13.10 87.81 12.96L87.81 12.96L87.81 12.96Q87.81 12.73 87.68 12.73L87.68 12.73L87.68 12.73Q87.64 12.73 87.48 12.87L87.48 12.87L87.48 12.87Q87.32 13.01 87.11 13.18L87.11 13.18L87.11 13.18Q86.90 13.36 86.50 13.50L86.50 13.50L86.50 13.50Q86.10 13.64 85.64 13.64L85.64 13.64L85.64 13.64Q84.34 13.64 83.61 12.77L83.61 12.77L83.61 12.77Q82.88 11.91 82.88 10.71ZM83.89 10.05L83.89 10.05L83.89 10.05Q83.89 11.12 84.54 12.01L84.54 12.01L84.54 12.01Q85.19 12.91 86.21 12.91L86.21 12.91L86.21 12.91Q86.84 12.91 87.36 12.59L87.36 12.59L87.36 12.59Q87.88 12.26 87.88 11.80L87.88 11.80L87.89 9.41L87.89 9.41Q87.89 8.55 87.50 8.33L87.50 8.33L87.50 8.33Q86.46 7.71 85.83 7.71L85.83 7.71L85.83 7.71Q84.92 7.71 84.41 8.38L84.41 8.38L84.41 8.38Q83.89 9.04 83.89 10.05Z"></path></g><defs data-v-fde0c5aa=""><!----></defs><g data-v-fde0c5aa="" id="4bdf88a0-f10e-4de4-b794-c27216c6426a" stroke="none" fill="#22C4D6" transform="matrix(0.8307511808493608,0,0,0.8307511808493608,29.03408457124165,109.13950202906105)"><path d="M39.6 68.87h3.22L59.4 29.5h-3.22L39.6 68.87zM66 29.5v4.64l15.13 15.03L66 64.21v4.63l19.8-19.67L66 29.5zM33 68.84v-4.63L17.87 49.17 33 34.14V29.5L13.2 49.17 33 68.84z"></path></g><!----></svg>