<svg xmlns="http://www.w3.org/2000/svg" xmlns:xlink="http://www.w3.org/1999/xlink" version="1.1" xml:space="preserve">
<desc>Created with Fabric.js 3.5.0</desc>
<defs>
</defs>
<rect x="0" y="0" width="100%" height="100%" fill="#0b345a"/>
<g transform="matrix(3.3689 0 0 0.598 499.9993 89.999)" id="715316">
<rect style="stroke: none; stroke-width: 1; stroke-dasharray: none; stroke-linecap: butt; stroke-dashoffset: 0; stroke-linejoin: miter; stroke-miterlimit: 4; is-custom-font: none; font-file-url: none; fill: rgb(11,52,90); fill-rule: nonzero; opacity: 1;" x="-150" y="-150" rx="0" ry="0" width="300" height="300"/>
</g>
<g transform="matrix(4.9755 0 0 4.711 617.0045 95.7778)" id="626">
<path style="stroke: none; stroke-width: 1; stroke-dasharray: none; stroke-linecap: butt; stroke-dashoffset: 0; stroke-linejoin: miter; stroke-miterlimit: 4; is-custom-font: none; font-file-url: none; fill: rgb(34,196,214); fill-rule: nonzero; opacity: 1;" transform=" translate(-45.29, -9.47)" d="M 0.62 8.9 L 0.62 8.9 L 0.62 8.9 Q 0.62 7.38 1.2 6.16 L 1.2 6.16 L 1.2 6.16 Q 1.79 4.94 3.02 4.19 L 3.02 4.19 L 3.02 4.19 Q 4.24 3.44 5.92 3.44 L 5.92 3.44 L 5.92 3.44 Q 6.78 3.44 7.64 3.7 L 7.64 3.7 L 7.64 3.7 Q 8.51 3.95 9.03 4.2 L 9.03 4.2 L 9.55 4.47 L 9.55 4.47 Q 9.59 4.47 9.69 4.4 L 9.69 4.4 L 9.69 4.4 Q 9.79 4.33 9.84 4.33 L 9.84 4.33 L 9.84 4.33 Q 9.91 4.33 9.98 4.38 L 9.98 4.38 L 9.98 4.38 Q 10.05 4.44 10.05 4.55 L 10.05 4.55 L 10.05 4.55 Q 10.07 4.96 10.12 5.41 L 10.12 5.41 L 10.12 5.41 Q 10.16 5.87 10.21 6.16 L 10.21 6.16 L 10.21 6.16 Q 10.25 6.45 10.25 6.51 L 10.25 6.51 L 10.25 6.51 Q 10.25 6.76 10.08 6.76 L 10.08 6.76 L 10.08 6.76 Q 9.95 6.76 9.84 6.57 L 9.84 6.57 L 9.84 6.57 Q 8.48 4.02 5.92 4.02 L 5.92 4.02 L 5.92 4.02 Q 4.17 4.02 3.05 5.14 L 3.05 5.14 L 3.05 5.14 Q 1.93 6.26 1.93 8.06 L 1.93 8.06 L 1.93 8.06 Q 1.93 9.06 2.19 9.93 L 2.19 9.93 L 2.19 9.93 Q 2.45 10.79 2.98 11.51 L 2.98 11.51 L 2.98 11.51 Q 3.5 12.24 4.42 12.66 L 4.42 12.66 L 4.42 12.66 Q 5.35 13.08 6.58 13.08 L 6.58 13.08 L 6.58 13.08 Q 8.6 13.08 9.97 10.98 L 9.97 10.98 L 9.97 10.98 Q 10.02 10.88 10.18 10.88 L 10.18 10.88 L 10.18 10.88 Q 10.3 10.88 10.3 11.07 L 10.3 11.07 L 10.3 11.07 Q 10.3 11.23 10.26 11.49 L 10.26 11.49 L 10.26 11.49 Q 10.21 11.75 10.14 12.06 L 10.14 12.06 L 10.14 12.06 Q 10.07 12.38 10.05 12.45 L 10.05 12.45 L 10.05 12.45 Q 10.02 12.6 9.83 12.7 L 9.83 12.7 L 9.83 12.7 Q 9.07 13.06 8.64 13.24 L 8.64 13.24 L 8.64 13.24 Q 8.22 13.43 7.56 13.57 L 7.56 13.57 L 7.56 13.57 Q 6.9 13.72 6.22 13.72 L 6.22 13.72 L 6.22 13.72 Q 5 13.72 4.02 13.43 L 4.02 13.43 L 4.02 13.43 Q 3.04 13.13 2.42 12.66 L 2.42 12.66 L 2.42 12.66 Q 1.79 12.18 1.37 11.54 L 1.37 11.54 L 1.37 11.54 Q 0.95 10.91 0.78 10.25 L 0.78 10.25 L 0.78 10.25 Q 0.62 9.6 0.62 8.9 Z M 11.44 10.6 L 11.44 10.6 L 11.44 10.6 Q 11.44 9.31 12.31 8.36 L 12.31 8.36 L 12.31 8.36 Q 13.19 7.41 14.74 7.41 L 14.74 7.41 L 14.74 7.41 Q 16.06 7.41 17.03 8.23 L 17.03 8.23 L 17.03 8.23 Q 18 9.06 18 10.51 L 18 10.51 L 18 10.51 Q 18 12 17 12.84 L 17 12.84 L 17 12.84 Q 16 13.69 14.64 13.69 L 14.64 13.69 L 14.64 13.69 Q 13.13 13.69 12.29 12.77 L 12.29 12.77 L 12.29 12.77 Q 11.44 11.86 11.44 10.6 Z M 12.54 10.12 L 12.54 10.12 L 12.54 10.12 Q 12.54 11.56 13.31 12.42 L 13.31 12.42 L 13.31 12.42 Q 14.08 13.27 15.06 13.27 L 15.06 13.27 L 15.06 13.27 Q 15.86 13.27 16.41 12.66 L 16.41 12.66 L 16.41 12.66 Q 16.95 12.05 16.95 10.93 L 16.95 10.93 L 16.95 10.93 Q 16.95 9.7 16.28 8.74 L 16.28 8.74 L 16.28 8.74 Q 15.61 7.78 14.41 7.78 L 14.41 7.78 L 14.41 7.78 Q 13.68 7.78 13.11 8.36 L 13.11 8.36 L 13.11 8.36 Q 12.54 8.93 12.54 10.12 Z M 19.1 10.71 L 19.1 10.71 L 19.1 10.71 Q 19.1 9.35 20 8.33 L 20 8.33 L 20 8.33 Q 20.9 7.31 22.5 7.31 L 22.5 7.31 L 22.5 7.31 Q 22.86 7.31 23.46 7.51 L 23.46 7.51 L 23.46 7.51 Q 24.05 7.71 24.09 7.71 L 24.09 7.71 L 24.09 7.71 Q 24.16 7.71 24.16 7.21 L 24.16 7.21 L 24.16 7.21 Q 24.16 6.15 24.18 5.82 L 24.18 5.82 L 24.18 5.82 Q 24.19 5.49 24.19 5.4 L 24.19 5.4 L 24.19 5.4 Q 24.19 4.96 24.18 4.75 L 24.18 4.75 L 24.18 4.75 Q 24.16 4.54 24.1 4.28 L 24.1 4.28 L 24.1 4.28 Q 24.04 4.03 23.88 3.93 L 23.88 3.93 L 23.88 3.93 Q 23.72 3.84 23.45 3.84 L 23.45 3.84 L 23.3 3.84 L 23.3 3.84 Q 23.09 3.84 23.04 3.82 L 23.04 3.82 L 23.04 3.82 Q 23 3.81 23 3.72 L 23 3.72 L 23 3.71 L 23 3.71 Q 23 3.61 23.14 3.56 L 23.14 3.56 L 23.14 3.56 Q 23.28 3.51 23.71 3.38 L 23.71 3.38 L 23.71 3.38 Q 24.14 3.25 24.58 3.04 L 24.58 3.04 L 24.58 3.04 Q 24.63 3.02 24.75 2.96 L 24.75 2.96 L 24.75 2.96 Q 24.88 2.9 24.97 2.86 L 24.97 2.86 L 24.97 2.86 Q 25.06 2.83 25.13 2.83 L 25.13 2.83 L 25.13 2.83 Q 25.3 2.83 25.3 3.11 L 25.3 3.11 L 25.3 3.11 Q 25.3 3.15 25.21 4.3 L 25.21 4.3 L 25.21 4.3 Q 25.12 5.45 25.12 6.15 L 25.12 6.15 L 25.12 6.15 Q 25.12 7.59 25.1 9.27 L 25.1 9.27 L 25.1 9.27 Q 25.09 10.95 25.09 11.26 L 25.09 11.26 L 25.09 11.26 Q 25.09 12.21 25.18 12.53 L 25.18 12.53 L 25.18 12.53 Q 25.27 12.85 25.58 12.95 L 25.58 12.95 L 25.58 12.95 Q 25.62 12.96 25.82 13 L 25.82 13 L 25.82 13 Q 26.01 13.03 26.1 13.08 L 26.1 13.08 L 26.1 13.08 Q 26.18 13.13 26.18 13.24 L 26.18 13.24 L 26.18 13.24 Q 26.18 13.41 25.1 13.5 L 25.1 13.5 L 25.1 13.5 Q 24.88 13.51 24.58 13.57 L 24.58 13.57 L 24.58 13.57 Q 24.29 13.64 24.22 13.64 L 24.22 13.64 L 24.22 13.64 Q 24.07 13.64 24.07 13.48 L 24.07 13.48 L 24.07 13.48 Q 24.07 13.44 24.05 13.27 L 24.05 13.27 L 24.05 13.27 Q 24.02 13.1 24.02 12.96 L 24.02 12.96 L 24.02 12.96 Q 24.02 12.73 23.9 12.73 L 23.9 12.73 L 23.9 12.73 Q 23.86 12.73 23.7 12.87 L 23.7 12.87 L 23.7 12.87 Q 23.53 13.01 23.32 13.18 L 23.32 13.18 L 23.32 13.18 Q 23.11 13.36 22.71 13.5 L 22.71 13.5 L 22.71 13.5 Q 22.32 13.64 21.85 13.64 L 21.85 13.64 L 21.85 13.64 Q 20.55 13.64 19.82 12.77 L 19.82 12.77 L 19.82 12.77 Q 19.1 11.91 19.1 10.71 Z M 20.1 10.05 L 20.1 10.05 L 20.1 10.05 Q 20.1 11.12 20.76 12.01 L 20.76 12.01 L 20.76 12.01 Q 21.41 12.91 22.43 12.91 L 22.43 12.91 L 22.43 12.91 Q 23.06 12.91 23.58 12.59 L 23.58 12.59 L 23.58 12.59 Q 24.09 12.26 24.09 11.8 L 24.09 11.8 L 24.11 9.41 L 24.11 9.41 Q 24.11 8.55 23.72 8.33 L 23.72 8.33 L 23.72 8.33 Q 22.68 7.71 22.05 7.71 L 22.05 7.71 L 22.05 7.71 Q 21.14 7.71 20.62 8.38 L 20.62 8.38 L 20.62 8.38 Q 20.1 9.04 20.1 10.05 Z M 26.6 7.67 L 26.6 7.67 L 26.6 7.67 Q 26.6 7.5 26.88 7.5 L 26.88 7.5 L 26.88 7.5 Q 27.27 7.5 27.68 7.52 L 27.68 7.52 L 27.68 7.52 Q 28.1 7.53 28.38 7.53 L 28.38 7.53 L 28.38 7.53 Q 28.62 7.53 28.8 7.52 L 28.8 7.52 L 28.8 7.52 Q 28.99 7.5 29.18 7.5 L 29.18 7.5 L 29.18 7.5 Q 29.27 7.5 29.35 7.55 L 29.35 7.55 L 29.35 7.55 Q 29.43 7.6 29.43 7.66 L 29.43 7.66 L 29.43 7.66 Q 29.43 7.91 29.09 7.91 L 29.09 7.91 L 28.88 7.91 L 28.88 7.91 Q 28.66 7.91 28.66 8.3 L 28.66 8.3 L 28.66 8.3 Q 28.66 8.61 29.26 9.94 L 29.26 9.94 L 29.26 9.94 Q 29.3 10.05 29.33 10.11 L 29.33 10.11 L 29.33 10.11 Q 29.36 10.18 29.41 10.28 L 29.41 10.28 L 29.41 10.28 Q 29.46 10.39 29.5 10.49 L 29.5 10.49 L 29.5 10.49 Q 29.58 10.67 29.78 11.12 L 29.78 11.12 L 29.78 11.12 Q 29.97 11.56 30.08 11.77 L 30.08 11.77 L 30.08 11.77 Q 30.18 11.98 30.24 11.98 L 30.24 11.98 L 30.24 11.98 Q 30.32 11.98 30.89 10.37 L 30.89 10.37 L 30.89 10.37 Q 31.46 8.76 31.46 8.43 L 31.46 8.43 L 31.46 8.43 Q 31.46 8.15 31.32 8.02 L 31.32 8.02 L 31.32 8.02 Q 31.19 7.9 31.02 7.9 L 31.02 7.9 L 31.02 7.9 Q 30.86 7.91 30.72 7.86 L 30.72 7.86 L 30.72 7.86 Q 30.59 7.81 30.59 7.66 L 30.59 7.66 L 30.59 7.66 Q 30.59 7.49 30.86 7.49 L 30.86 7.49 L 30.86 7.49 Q 31.07 7.49 31.41 7.5 L 31.41 7.5 L 31.41 7.5 Q 31.75 7.5 31.86 7.5 L 31.86 7.5 L 31.86 7.5 Q 32 7.5 32.35 7.5 L 32.35 7.5 L 32.35 7.5 Q 32.69 7.49 32.73 7.49 L 32.73 7.49 L 32.73 7.49 Q 33.03 7.49 33.03 7.67 L 33.03 7.67 L 33.03 7.67 Q 33.03 7.81 32.78 7.87 L 32.78 7.87 L 32.78 7.87 Q 32.54 7.94 32.45 8.05 L 32.45 8.05 L 32.45 8.05 Q 32.23 8.37 31.7 9.81 L 31.7 9.81 L 30.45 13.13 L 30.45 13.13 Q 30.3 13.54 30.14 13.96 L 30.14 13.96 L 30.14 13.96 Q 29.99 14.39 29.89 14.66 L 29.89 14.66 L 29.89 14.66 Q 29.79 14.92 29.69 15.19 L 29.69 15.19 L 29.69 15.19 Q 29.6 15.46 29.54 15.6 L 29.54 15.6 L 29.54 15.6 Q 29.48 15.75 29.42 15.88 L 29.42 15.88 L 29.42 15.88 Q 29.36 16 29.31 16.05 L 29.31 16.05 L 29.31 16.05 Q 29.26 16.1 29.22 16.1 L 29.22 16.1 L 29.22 16.1 Q 29.2 16.1 29.17 16.1 L 29.17 16.1 L 29.17 16.1 Q 29.13 16.1 28.99 16.11 L 28.99 16.11 L 28.99 16.11 Q 28.85 16.11 28.57 16.11 L 28.57 16.11 L 28.57 16.11 Q 28.31 16.11 28.31 15.93 L 28.31 15.93 L 28.31 15.93 Q 28.31 15.89 28.62 15.5 L 28.62 15.5 L 28.62 15.5 Q 28.94 15.11 29.26 14.53 L 29.26 14.53 L 29.26 14.53 Q 29.58 13.96 29.58 13.48 L 29.58 13.48 L 29.58 13.48 Q 29.58 13.08 28.78 11.34 L 28.78 11.34 L 28.78 11.34 Q 27.99 9.6 27.4 8.5 L 27.4 8.5 L 27.4 8.5 Q 27.24 8.22 27.08 8.06 L 27.08 8.06 L 27.08 8.06 Q 26.92 7.91 26.82 7.9 L 26.82 7.9 L 26.82 7.9 Q 26.73 7.88 26.66 7.84 L 26.66 7.84 L 26.66 7.84 Q 26.6 7.8 26.6 7.67 Z M 36.55 3.7 L 36.55 3.7 L 36.55 3.7 Q 36.55 3.47 36.96 3.47 L 36.96 3.47 L 39.28 3.47 L 39.28 3.47 Q 39.61 3.47 40.03 3.45 L 40.03 3.45 L 40.03 3.45 Q 40.45 3.43 40.68 3.43 L 40.68 3.43 L 40.68 3.43 Q 41.94 3.43 42.84 4.07 L 42.84 4.07 L 42.84 4.07 Q 43.74 4.7 43.74 5.78 L 43.74 5.78 L 43.74 5.78 Q 43.74 6.5 43.46 7.03 L 43.46 7.03 L 43.46 7.03 Q 43.19 7.57 42.86 7.81 L 42.86 7.81 L 42.86 7.81 Q 42.53 8.05 42.26 8.22 L 42.26 8.22 L 42.26 8.22 Q 41.99 8.4 41.99 8.46 L 41.99 8.46 L 41.99 8.46 Q 41.99 8.62 43.16 10.27 L 43.16 10.27 L 43.16 10.27 Q 44.34 11.91 44.77 12.38 L 44.77 12.38 L 44.77 12.38 Q 45.3 13.03 46.06 13.03 L 46.06 13.03 L 46.06 13.03 Q 46.26 13.03 46.26 13.2 L 46.26 13.2 L 46.26 13.2 Q 46.26 13.41 46.09 13.48 L 46.09 13.48 L 46.09 13.48 Q 45.92 13.55 45.22 13.55 L 45.22 13.55 L 45.22 13.55 Q 44.56 13.55 44.02 13.23 L 44.02 13.23 L 44.02 13.23 Q 43.32 12.82 41.65 10.09 L 41.65 10.09 L 41.65 10.09 Q 41.55 9.94 41.51 9.87 L 41.51 9.87 L 41.51 9.87 Q 40.84 8.78 40.47 8.78 L 40.47 8.78 L 40.18 8.78 L 39.33 8.78 L 39.33 8.78 Q 39.16 8.78 39.12 8.92 L 39.12 8.92 L 39.12 8.92 Q 39.09 9.06 39.09 9.77 L 39.09 9.77 L 39.09 9.77 Q 39.09 10.44 39.09 10.88 L 39.09 10.88 L 39.09 10.88 Q 39.09 11.31 39.09 11.43 L 39.09 11.43 L 39.09 11.43 Q 39.1 11.55 39.1 11.63 L 39.1 11.63 L 39.1 11.63 Q 39.1 11.7 39.1 11.75 L 39.1 11.75 L 39.1 11.75 Q 39.1 12.32 39.37 12.63 L 39.37 12.63 L 39.37 12.63 Q 39.63 12.95 39.96 13 L 39.96 13 L 39.96 13 Q 40.29 13.05 40.56 13.11 L 40.56 13.11 L 40.56 13.11 Q 40.82 13.17 40.82 13.31 L 40.82 13.31 L 40.82 13.31 Q 40.82 13.54 40.57 13.54 L 40.57 13.54 L 40.57 13.54 Q 40.56 13.54 39.61 13.49 L 39.61 13.49 L 39.61 13.49 Q 38.65 13.44 38.57 13.44 L 38.57 13.44 L 38.57 13.44 Q 38.16 13.44 37.6 13.47 L 37.6 13.47 L 37.6 13.47 Q 37.04 13.5 37.03 13.5 L 37.03 13.5 L 37.03 13.5 Q 36.74 13.5 36.74 13.27 L 36.74 13.27 L 36.74 13.27 Q 36.74 13.12 36.92 13.05 L 36.92 13.05 L 36.92 13.05 Q 37.1 12.99 37.32 12.96 L 37.32 12.96 L 37.32 12.96 Q 37.55 12.94 37.73 12.66 L 37.73 12.66 L 37.73 12.66 Q 37.91 12.38 37.91 11.86 L 37.91 11.86 L 37.91 11.86 Q 37.91 11.49 37.92 9.9 L 37.92 9.9 L 37.92 9.9 Q 37.93 8.3 37.93 7.45 L 37.93 7.45 L 37.93 7.45 Q 37.93 6.58 37.92 5.86 L 37.92 5.86 L 37.92 5.86 Q 37.91 5.14 37.91 5.08 L 37.91 5.08 L 37.91 5.08 Q 37.91 4.56 37.7 4.29 L 37.7 4.29 L 37.7 4.29 Q 37.49 4.02 37.23 3.98 L 37.23 3.98 L 37.23 3.98 Q 36.97 3.95 36.76 3.89 L 36.76 3.89 L 36.76 3.89 Q 36.55 3.84 36.55 3.7 Z M 39.09 5.54 L 39.09 5.94 L 39.09 5.94 Q 39.09 7.38 39.1 7.72 L 39.1 7.72 L 39.1 7.72 Q 39.12 8.06 39.2 8.12 L 39.2 8.12 L 39.2 8.12 Q 39.41 8.25 39.8 8.25 L 39.8 8.25 L 39.94 8.25 L 40.35 8.25 L 40.35 8.25 Q 41.54 8.25 42.05 7.7 L 42.05 7.7 L 42.05 7.7 Q 42.56 7.15 42.56 6.3 L 42.56 6.3 L 42.56 6.3 Q 42.56 5.43 41.88 4.72 L 41.88 4.72 L 41.88 4.72 Q 41.2 4 39.83 4 L 39.83 4 L 39.83 4 Q 39.31 4 39.2 4.28 L 39.2 4.28 L 39.2 4.28 Q 39.09 4.55 39.09 5.54 L 39.09 5.54 Z M 46.47 10.72 L 46.47 10.72 L 46.47 10.72 Q 46.47 9.32 47.26 8.36 L 47.26 8.36 L 47.26 8.36 Q 48.05 7.39 49.31 7.39 L 49.31 7.39 L 49.31 7.39 Q 49.9 7.39 50.38 7.6 L 50.38 7.6 L 50.38 7.6 Q 50.86 7.81 51.13 8.11 L 51.13 8.11 L 51.13 8.11 Q 51.39 8.41 51.58 8.75 L 51.58 8.75 L 51.58 8.75 Q 51.76 9.09 51.82 9.3 L 51.82 9.3 L 51.82 9.3 Q 51.88 9.52 51.88 9.62 L 51.88 9.62 L 51.88 9.62 Q 51.88 9.87 51.31 9.87 L 51.31 9.87 L 48.13 9.87 L 47.71 9.87 L 47.71 9.87 Q 47.6 9.87 47.58 9.89 L 47.58 9.89 L 47.58 9.89 Q 47.56 9.91 47.56 10.02 L 47.56 10.02 L 47.56 10.02 Q 47.56 11.34 48.27 12.1 L 48.27 12.1 L 48.27 12.1 Q 48.97 12.85 49.92 12.85 L 49.92 12.85 L 49.92 12.85 Q 50.51 12.85 51.12 12.54 L 51.12 12.54 L 51.12 12.54 Q 51.73 12.22 51.76 12.22 L 51.76 12.22 L 51.76 12.22 Q 51.9 12.22 51.9 12.35 L 51.9 12.35 L 51.9 12.35 Q 51.9 12.4 51.8 12.55 L 51.8 12.55 L 51.8 12.55 Q 51.7 12.7 51.49 12.89 L 51.49 12.89 L 51.49 12.89 Q 51.28 13.09 51 13.27 L 51 13.27 L 51 13.27 Q 50.72 13.45 50.3 13.58 L 50.3 13.58 L 50.3 13.58 Q 49.88 13.71 49.42 13.71 L 49.42 13.71 L 49.42 13.71 Q 48.19 13.71 47.33 12.95 L 47.33 12.95 L 47.33 12.95 Q 46.47 12.19 46.47 10.72 Z M 47.64 9.34 L 47.64 9.34 L 47.64 9.34 Q 47.64 9.53 47.82 9.53 L 47.82 9.53 L 47.82 9.53 Q 48.2 9.53 49.21 9.49 L 49.21 9.49 L 49.21 9.49 Q 50.22 9.45 50.29 9.45 L 50.29 9.45 L 50.29 9.45 Q 50.48 9.45 50.53 9.41 L 50.53 9.41 L 50.53 9.41 Q 50.58 9.38 50.58 9.28 L 50.58 9.28 L 50.58 9.28 Q 50.58 8.86 50.19 8.3 L 50.19 8.3 L 50.19 8.3 Q 49.8 7.74 49.07 7.74 L 49.07 7.74 L 49.07 7.74 Q 48.4 7.74 48.02 8.29 L 48.02 8.29 L 48.02 8.29 Q 47.64 8.85 47.64 9.34 Z M 52.95 8.11 L 52.95 8.11 L 52.95 8.11 Q 52.95 8.04 52.98 7.99 L 52.98 7.99 L 52.98 7.99 Q 53.02 7.95 53.12 7.9 L 53.12 7.9 L 53.12 7.9 Q 53.23 7.85 53.34 7.82 L 53.34 7.82 L 53.34 7.82 Q 53.45 7.78 53.67 7.71 L 53.67 7.71 L 53.67 7.71 Q 53.89 7.63 54.08 7.55 L 54.08 7.55 L 54.08 7.55 Q 54.24 7.48 54.37 7.42 L 54.37 7.42 L 54.37 7.42 Q 54.5 7.36 54.54 7.34 L 54.54 7.34 L 54.54 7.34 Q 54.59 7.32 54.64 7.31 L 54.64 7.31 L 54.64 7.31 Q 54.7 7.29 54.78 7.29 L 54.78 7.29 L 54.78 7.29 Q 54.99 7.29 54.99 7.56 L 54.99 7.56 L 54.99 7.56 Q 54.99 7.63 54.95 7.87 L 54.95 7.87 L 54.95 7.87 Q 54.91 8.11 54.91 8.23 L 54.91 8.23 L 54.91 12.07 L 54.91 12.07 Q 54.91 12.49 55.04 12.73 L 55.04 12.73 L 55.04 12.73 Q 55.17 12.96 55.32 13.02 L 55.32 13.02 L 55.32 13.02 Q 55.47 13.08 55.69 13.09 L 55.69 13.09 L 55.69 13.09 Q 55.86 13.1 55.92 13.11 L 55.92 13.11 L 55.92 13.11 Q 55.97 13.12 56.04 13.16 L 56.04 13.16 L 56.04 13.16 Q 56.11 13.2 56.11 13.3 L 56.11 13.3 L 56.11 13.3 Q 56.11 13.54 55.87 13.54 L 55.87 13.54 L 55.87 13.54 Q 55.85 13.54 55.78 13.53 L 55.78 13.53 L 55.78 13.53 Q 55.71 13.52 55.66 13.52 L 55.66 13.52 L 55.66 13.52 Q 55.36 13.52 55.15 13.51 L 55.15 13.51 L 55.15 13.51 Q 54.94 13.5 54.67 13.5 L 54.67 13.5 L 54.67 13.5 Q 54.33 13.5 54.04 13.51 L 54.04 13.51 L 54.04 13.51 Q 53.75 13.52 53.68 13.52 L 53.68 13.52 L 53.68 13.52 Q 53.12 13.52 53.12 13.34 L 53.12 13.34 L 53.12 13.34 Q 53.12 13.15 53.33 13.08 L 53.33 13.08 L 53.33 13.08 Q 53.34 13.08 53.38 13.06 L 53.38 13.06 L 53.38 13.06 Q 53.7 12.95 53.77 12.78 L 53.77 12.78 L 53.77 12.78 Q 53.9 12.5 53.9 10.56 L 53.9 10.56 L 53.9 9.32 L 53.9 9.32 Q 53.9 8.92 53.8 8.68 L 53.8 8.68 L 53.8 8.68 Q 53.7 8.44 53.62 8.39 L 53.62 8.39 L 53.62 8.39 Q 53.54 8.33 53.33 8.29 L 53.33 8.29 L 53.33 8.29 Q 53.13 8.26 53.09 8.25 L 53.09 8.25 L 53.09 8.25 Q 52.95 8.19 52.95 8.11 Z M 53.75 5.18 L 53.75 5.18 L 53.75 5.18 Q 53.75 5.01 53.99 4.71 L 53.99 4.71 L 53.99 4.71 Q 54.24 4.41 54.45 4.41 L 54.45 4.41 L 54.45 4.41 Q 54.67 4.41 54.88 4.7 L 54.88 4.7 L 54.88 4.7 Q 55.09 4.98 55.09 5.21 L 55.09 5.21 L 55.09 5.21 Q 55.09 5.43 54.82 5.7 L 54.82 5.7 L 54.82 5.7 Q 54.56 5.98 54.43 5.98 L 54.43 5.98 L 54.43 5.98 Q 54.15 5.98 53.95 5.68 L 53.95 5.68 L 53.95 5.68 Q 53.75 5.39 53.75 5.18 Z M 56.9 10.75 L 56.9 10.75 L 56.9 10.75 Q 56.9 9.41 57.8 8.42 L 57.8 8.42 L 57.8 8.42 Q 58.7 7.43 60.14 7.43 L 60.14 7.43 L 60.14 7.43 Q 60.63 7.43 61.2 7.57 L 61.2 7.57 L 61.2 7.57 Q 61.77 7.71 61.78 7.9 L 61.78 7.9 L 61.78 7.9 Q 61.81 8.23 61.81 8.55 L 61.81 8.55 L 61.81 8.55 Q 61.81 9.17 61.66 9.17 L 61.66 9.17 L 61.66 9.17 Q 61.57 9.17 61.51 9.11 L 61.51 9.11 L 61.51 9.11 Q 61.45 9.04 61.37 8.92 L 61.37 8.92 L 61.37 8.92 Q 61.29 8.79 61.19 8.72 L 61.19 8.72 L 61.19 8.72 Q 60.89 8.46 60.36 8.22 L 60.36 8.22 L 60.36 8.22 Q 59.84 7.98 59.33 7.98 L 59.33 7.98 L 59.33 7.98 Q 59.23 7.98 59.08 8.03 L 59.08 8.03 L 59.08 8.03 Q 58.93 8.08 58.72 8.24 L 58.72 8.24 L 58.72 8.24 Q 58.52 8.4 58.35 8.64 L 58.35 8.64 L 58.35 8.64 Q 58.18 8.89 58.07 9.32 L 58.07 9.32 L 58.07 9.32 Q 57.95 9.76 57.95 10.3 L 57.95 10.3 L 57.95 10.3 Q 57.95 11.4 58.64 12.2 L 58.64 12.2 L 58.64 12.2 Q 59.33 13.01 60.34 13.01 L 60.34 13.01 L 60.34 13.01 Q 60.83 13.01 61.25 12.82 L 61.25 12.82 L 61.25 12.82 Q 61.67 12.64 61.9 12.46 L 61.9 12.46 L 61.9 12.46 Q 62.13 12.28 62.19 12.28 L 62.19 12.28 L 62.19 12.28 Q 62.34 12.28 62.34 12.42 L 62.34 12.42 L 62.34 12.42 Q 62.34 12.46 62.25 12.6 L 62.25 12.6 L 62.25 12.6 Q 62.16 12.74 61.96 12.94 L 61.96 12.94 L 61.96 12.94 Q 61.75 13.13 61.47 13.31 L 61.47 13.31 L 61.47 13.31 Q 61.19 13.48 60.75 13.61 L 60.75 13.61 L 60.75 13.61 Q 60.3 13.73 59.79 13.73 L 59.79 13.73 L 59.79 13.73 Q 58.48 13.73 57.69 12.94 L 57.69 12.94 L 57.69 12.94 Q 56.9 12.14 56.9 10.75 Z M 62.89 3.68 L 62.89 3.68 L 62.89 3.68 Q 62.89 3.57 63.04 3.49 L 63.04 3.49 L 63.04 3.49 Q 63.18 3.42 63.46 3.35 L 63.46 3.35 L 63.46 3.35 Q 63.73 3.28 63.85 3.22 L 63.85 3.22 L 63.85 3.22 Q 64.74 2.83 64.86 2.83 L 64.86 2.83 L 64.86 2.83 Q 65.04 2.83 65.04 3.15 L 65.04 3.15 L 65.04 3.15 Q 65.04 3.22 65 3.49 L 65 3.49 L 65 3.49 Q 64.95 3.75 64.95 4.02 L 64.95 4.02 L 64.95 4.02 Q 64.93 5.28 64.91 6.15 L 64.91 6.15 L 64.91 6.15 Q 64.89 7.03 64.88 7.33 L 64.88 7.33 L 64.88 7.33 Q 64.86 7.63 64.86 7.83 L 64.86 7.83 L 64.86 7.83 Q 64.85 8.02 64.85 8.13 L 64.85 8.13 L 64.85 8.13 Q 64.85 8.4 64.96 8.4 L 64.96 8.4 L 64.96 8.4 Q 64.99 8.4 65.25 8.14 L 65.25 8.14 L 65.25 8.14 Q 65.51 7.88 65.96 7.62 L 65.96 7.62 L 65.96 7.62 Q 66.42 7.36 66.93 7.36 L 66.93 7.36 L 66.93 7.36 Q 68.07 7.36 68.7 8.04 L 68.7 8.04 L 68.7 8.04 Q 69.33 8.71 69.33 10.12 L 69.33 10.12 L 69.33 12.15 L 69.33 12.15 Q 69.33 12.29 69.36 12.45 L 69.36 12.45 L 69.36 12.45 Q 69.38 12.61 69.5 12.78 L 69.5 12.78 L 69.5 12.78 Q 69.61 12.95 69.79 12.96 L 69.79 12.96 L 69.79 12.96 Q 70.55 13.03 70.55 13.26 L 70.55 13.26 L 70.55 13.26 Q 70.55 13.48 70.11 13.48 L 70.11 13.48 L 70.11 13.48 Q 70.04 13.48 69.57 13.45 L 69.57 13.45 L 69.57 13.45 Q 69.1 13.41 68.94 13.41 L 68.94 13.41 L 68.94 13.41 Q 68.81 13.41 68.36 13.43 L 68.36 13.43 L 68.36 13.43 Q 67.9 13.45 67.86 13.45 L 67.86 13.45 L 67.86 13.45 Q 67.54 13.45 67.54 13.31 L 67.54 13.31 L 67.54 13.31 Q 67.54 13.16 67.66 13.11 L 67.66 13.11 L 67.66 13.11 Q 67.77 13.06 67.91 13.06 L 67.91 13.06 L 67.91 13.06 Q 68.05 13.06 68.17 12.91 L 68.17 12.91 L 68.17 12.91 Q 68.29 12.75 68.29 12.43 L 68.29 12.43 L 68.29 12.43 Q 68.29 12.38 68.3 12.29 L 68.3 12.29 L 68.3 12.29 Q 68.31 12.21 68.31 12.06 L 68.31 12.06 L 68.31 12.06 Q 68.31 11.91 68.31 11.41 L 68.31 11.41 L 68.31 11.41 Q 68.32 10.91 68.32 10.11 L 68.32 10.11 L 68.32 10.11 Q 68.32 9.25 67.8 8.63 L 67.8 8.63 L 67.8 8.63 Q 67.28 8.01 66.58 8.01 L 66.58 8.01 L 66.58 8.01 Q 65.93 8.01 65.23 8.55 L 65.23 8.55 L 65.23 8.55 Q 64.97 8.75 64.9 9.19 L 64.9 9.19 L 64.9 9.19 Q 64.83 9.63 64.83 11.14 L 64.83 11.14 L 64.83 11.47 L 64.83 11.47 Q 64.83 12.1 64.94 12.48 L 64.94 12.48 L 64.94 12.48 Q 65.04 12.87 65.39 13.02 L 65.39 13.02 L 65.39 13.02 Q 65.51 13.06 65.7 13.08 L 65.7 13.08 L 65.7 13.08 Q 65.9 13.09 66 13.13 L 66 13.13 L 66 13.13 Q 66.11 13.16 66.11 13.27 L 66.11 13.27 L 66.11 13.27 Q 66.11 13.44 65.95 13.44 L 65.95 13.44 L 65.59 13.43 L 65.59 13.43 Q 65.23 13.41 64.86 13.39 L 64.86 13.39 L 64.86 13.39 Q 64.48 13.37 64.46 13.37 L 64.46 13.37 L 64.46 13.37 Q 64.36 13.37 63.97 13.4 L 63.97 13.4 L 63.97 13.4 Q 63.57 13.44 63.46 13.44 L 63.46 13.44 L 63.46 13.44 Q 63.28 13.44 63.19 13.42 L 63.19 13.42 L 63.19 13.42 Q 63.1 13.4 63.09 13.38 L 63.09 13.38 L 63.09 13.38 Q 63.08 13.36 63.08 13.3 L 63.08 13.3 L 63.08 13.3 Q 63.08 13.16 63.25 13.12 L 63.25 13.12 L 63.25 13.12 Q 63.66 13.01 63.78 12.76 L 63.78 12.76 L 63.78 12.76 Q 63.9 12.52 63.9 12.04 L 63.9 12.04 L 63.95 7.27 L 63.95 6.58 L 63.95 6.58 Q 63.95 4.47 63.84 4.13 L 63.84 4.13 L 63.84 4.13 Q 63.74 3.84 63.36 3.84 L 63.36 3.84 L 63.36 3.84 Q 63.24 3.84 63.18 3.84 L 63.18 3.84 L 63.13 3.82 L 63.13 3.82 Q 62.89 3.82 62.89 3.68 Z M 71.5 12.25 L 71.5 12.25 L 71.5 12.25 Q 71.5 11.75 71.71 11.4 L 71.71 11.4 L 71.71 11.4 Q 71.92 11.06 72.35 10.87 L 72.35 10.87 L 72.35 10.87 Q 72.77 10.68 73.23 10.57 L 73.23 10.57 L 73.23 10.57 Q 73.7 10.46 74.35 10.35 L 74.35 10.35 L 74.35 10.35 Q 74.44 10.33 74.48 10.32 L 74.48 10.32 L 74.48 10.32 Q 74.52 10.32 74.59 10.31 L 74.59 10.31 L 74.59 10.31 Q 74.66 10.3 74.72 10.29 L 74.72 10.29 L 74.72 10.29 Q 74.82 10.28 74.85 10.26 L 74.85 10.26 L 74.85 10.26 Q 74.89 10.25 74.92 10.2 L 74.92 10.2 L 74.92 10.2 Q 74.96 10.15 74.96 10.07 L 74.96 10.07 L 74.96 10.07 Q 74.96 9.93 74.97 9.68 L 74.97 9.68 L 74.97 9.68 Q 74.98 9.44 74.98 9.34 L 74.98 9.34 L 74.98 9.34 Q 74.98 8.54 74.52 8.18 L 74.52 8.18 L 74.52 8.18 Q 74.06 7.83 73.63 7.83 L 73.63 7.83 L 73.63 7.83 Q 72.62 7.83 72.62 8.67 L 72.62 8.67 L 72.62 8.67 Q 72.62 8.78 72.65 8.95 L 72.65 8.95 L 72.65 8.95 Q 72.67 9.11 72.67 9.17 L 72.67 9.17 L 72.67 9.17 Q 72.67 9.45 72.42 9.45 L 72.42 9.45 L 72.42 9.45 Q 72.34 9.45 72.21 9.43 L 72.21 9.43 L 72.21 9.43 Q 72.09 9.41 71.93 9.36 L 71.93 9.36 L 71.93 9.36 Q 71.76 9.31 71.66 9.19 L 71.66 9.19 L 71.66 9.19 Q 71.55 9.07 71.55 8.9 L 71.55 8.9 L 71.55 8.9 Q 71.55 8.36 72.29 7.86 L 72.29 7.86 L 72.29 7.86 Q 73.02 7.36 73.91 7.36 L 73.91 7.36 L 73.91 7.36 Q 74.51 7.36 74.93 7.5 L 74.93 7.5 L 74.93 7.5 Q 75.35 7.64 75.55 7.82 L 75.55 7.82 L 75.55 7.82 Q 75.75 7.99 75.87 8.28 L 75.87 8.28 L 75.87 8.28 Q 75.98 8.57 75.99 8.73 L 75.99 8.73 L 75.99 8.73 Q 76.01 8.89 76.01 9.13 L 76.01 9.13 L 76.01 9.13 Q 76.01 10.14 75.97 10.72 L 75.97 10.72 L 75.97 10.72 Q 75.94 11.3 75.94 11.73 L 75.94 11.73 L 75.94 11.73 Q 75.94 12.25 76.05 12.55 L 76.05 12.55 L 76.05 12.55 Q 76.16 12.85 76.31 12.94 L 76.31 12.94 L 76.31 12.94 Q 76.47 13.02 76.62 13.03 L 76.62 13.03 L 76.62 13.03 Q 76.78 13.05 76.89 13.09 L 76.89 13.09 L 76.89 13.09 Q 77 13.13 77 13.26 L 77 13.26 L 77 13.26 Q 77 13.55 76.12 13.55 L 76.12 13.55 L 76.12 13.55 Q 75.75 13.55 75.5 13.36 L 75.5 13.36 L 75.5 13.36 Q 75.24 13.16 75.12 12.97 L 75.12 12.97 L 75.12 12.97 Q 75.01 12.78 75 12.78 L 75 12.78 L 75 12.78 Q 74.98 12.78 74.89 12.87 L 74.89 12.87 L 74.89 12.87 Q 74.79 12.96 74.61 13.09 L 74.61 13.09 L 74.61 13.09 Q 74.44 13.22 74.22 13.34 L 74.22 13.34 L 74.22 13.34 Q 74 13.47 73.72 13.56 L 73.72 13.56 L 73.72 13.56 Q 73.43 13.65 73.15 13.65 L 73.15 13.65 L 73.15 13.65 Q 72.25 13.65 71.85 13.23 L 71.85 13.23 L 71.85 13.23 Q 71.5 12.88 71.5 12.25 Z M 72.59 12.04 L 72.59 12.04 L 72.59 12.04 Q 72.59 12.52 72.87 12.8 L 72.87 12.8 L 72.87 12.8 Q 73.15 13.09 73.67 13.09 L 73.67 13.09 L 73.67 13.09 Q 74.03 13.09 74.29 12.98 L 74.29 12.98 L 74.29 12.98 Q 74.55 12.87 74.68 12.73 L 74.68 12.73 L 74.68 12.73 Q 74.8 12.59 74.87 12.36 L 74.87 12.36 L 74.87 12.36 Q 74.94 12.12 74.95 12 L 74.95 12 L 74.95 12 Q 74.96 11.87 74.96 11.66 L 74.96 11.66 L 74.96 10.65 L 74.96 10.65 Q 74.96 10.53 74.86 10.53 L 74.86 10.53 L 74.86 10.53 Q 74.83 10.53 74.79 10.54 L 74.79 10.54 L 74.79 10.54 Q 74.75 10.56 74.72 10.56 L 74.72 10.56 L 74.72 10.56 Q 74.4 10.61 74.31 10.63 L 74.31 10.63 L 74.31 10.63 Q 74.23 10.64 73.92 10.71 L 73.92 10.71 L 73.92 10.71 Q 73.61 10.78 73.49 10.84 L 73.49 10.84 L 73.49 10.84 Q 73.37 10.89 73.16 11.01 L 73.16 11.01 L 73.16 11.01 Q 72.94 11.13 72.85 11.26 L 72.85 11.26 L 72.85 11.26 Q 72.76 11.4 72.67 11.6 L 72.67 11.6 L 72.67 11.6 Q 72.59 11.8 72.59 12.04 Z M 77.39 8.12 L 77.39 8.12 L 77.39 8.12 Q 77.39 7.97 77.58 7.89 L 77.58 7.89 L 77.58 7.89 Q 77.77 7.81 78.28 7.65 L 78.28 7.65 L 78.28 7.65 Q 78.79 7.49 79.24 7.28 L 79.24 7.28 L 79.24 7.28 Q 79.38 7.22 79.44 7.22 L 79.44 7.22 L 79.44 7.22 Q 79.62 7.22 79.62 7.5 L 79.62 7.5 L 79.62 7.5 Q 79.62 7.56 79.61 7.69 L 79.61 7.69 L 79.61 7.69 Q 79.6 7.81 79.6 7.88 L 79.6 7.88 L 79.6 7.88 Q 79.6 8.18 79.62 8.3 L 79.62 8.3 L 79.62 8.3 Q 79.63 8.43 79.65 8.46 L 79.65 8.46 L 79.65 8.46 Q 79.67 8.48 79.72 8.48 L 79.72 8.48 L 79.72 8.48 Q 79.74 8.48 79.93 8.2 L 79.93 8.2 L 79.93 8.2 Q 80.11 7.92 80.44 7.64 L 80.44 7.64 L 80.44 7.64 Q 80.78 7.35 81.19 7.35 L 81.19 7.35 L 81.19 7.35 Q 81.44 7.35 81.84 7.62 L 81.84 7.62 L 81.84 7.62 Q 82.14 7.81 82.14 8.02 L 82.14 8.02 L 82.14 8.02 Q 82.14 8.27 82.03 8.47 L 82.03 8.47 L 82.03 8.47 Q 81.91 8.67 81.81 8.74 L 81.81 8.74 L 81.81 8.74 Q 81.7 8.81 81.66 8.81 L 81.66 8.81 L 81.66 8.81 Q 81.55 8.81 81.26 8.64 L 81.26 8.64 L 81.26 8.64 Q 80.98 8.47 80.6 8.47 L 80.6 8.47 L 80.6 8.47 Q 80.22 8.47 79.89 8.78 L 79.89 8.78 L 79.89 8.78 Q 79.56 9.09 79.56 9.34 L 79.56 9.34 L 79.56 10.79 L 79.56 10.79 Q 79.56 11.3 79.57 11.61 L 79.57 11.61 L 79.57 11.61 Q 79.58 11.93 79.58 12 L 79.58 12 L 79.58 12 Q 79.58 12.08 79.58 12.14 L 79.58 12.14 L 79.58 12.14 Q 79.59 12.19 79.59 12.26 L 79.59 12.26 L 79.59 12.26 Q 79.59 12.56 79.79 12.77 L 79.79 12.77 L 79.79 12.77 Q 79.98 12.98 80.25 13.02 L 80.25 13.02 L 80.25 13.02 Q 80.33 13.03 80.46 13.05 L 80.46 13.05 L 80.46 13.05 Q 80.58 13.06 80.65 13.07 L 80.65 13.07 L 80.65 13.07 Q 80.72 13.08 80.81 13.1 L 80.81 13.1 L 80.81 13.1 Q 80.89 13.12 80.93 13.16 L 80.93 13.16 L 80.93 13.16 Q 80.96 13.2 80.96 13.26 L 80.96 13.26 L 80.96 13.26 Q 80.96 13.48 80.79 13.48 L 80.79 13.48 L 80.79 13.48 Q 80.56 13.48 80.15 13.45 L 80.15 13.45 L 80.15 13.45 Q 79.74 13.41 79.6 13.41 L 79.6 13.41 L 79.6 13.41 Q 79.16 13.41 78.68 13.45 L 78.68 13.45 L 78.68 13.45 Q 78.2 13.48 78.15 13.48 L 78.15 13.48 L 78.15 13.48 Q 78.01 13.48 77.94 13.45 L 77.94 13.45 L 77.94 13.45 Q 77.87 13.43 77.85 13.4 L 77.85 13.4 L 77.85 13.4 Q 77.84 13.37 77.84 13.31 L 77.84 13.31 L 77.84 13.31 Q 77.84 13.13 78.02 13.08 L 78.02 13.08 L 78.02 13.08 Q 78.39 12.99 78.46 12.72 L 78.46 12.72 L 78.46 12.72 Q 78.54 12.45 78.54 11.55 L 78.54 11.55 L 78.54 11.55 Q 78.54 10.64 78.53 10.05 L 78.53 10.05 L 78.53 10.05 Q 78.53 9.46 78.53 9.3 L 78.53 9.3 L 78.53 9.3 Q 78.53 9.14 78.52 9.04 L 78.52 9.04 L 78.52 9.04 Q 78.51 8.95 78.51 8.88 L 78.51 8.88 L 78.51 8.88 Q 78.51 8.72 78.47 8.62 L 78.47 8.62 L 78.47 8.62 Q 78.43 8.53 78.27 8.44 L 78.27 8.44 L 78.27 8.44 Q 78.11 8.36 77.81 8.36 L 77.81 8.36 L 77.81 8.36 Q 77.8 8.36 77.74 8.35 L 77.74 8.35 L 77.74 8.35 Q 77.69 8.34 77.66 8.34 L 77.66 8.34 L 77.66 8.34 Q 77.39 8.34 77.39 8.12 Z M 82.88 10.71 L 82.88 10.71 L 82.88 10.71 Q 82.88 9.35 83.78 8.33 L 83.78 8.33 L 83.78 8.33 Q 84.69 7.31 86.28 7.31 L 86.28 7.31 L 86.28 7.31 Q 86.65 7.31 87.24 7.51 L 87.24 7.51 L 87.24 7.51 Q 87.84 7.71 87.88 7.71 L 87.88 7.71 L 87.88 7.71 Q 87.95 7.71 87.95 7.21 L 87.95 7.21 L 87.95 7.21 Q 87.95 6.15 87.96 5.82 L 87.96 5.82 L 87.96 5.82 Q 87.98 5.49 87.98 5.4 L 87.98 5.4 L 87.98 5.4 Q 87.98 4.96 87.96 4.75 L 87.96 4.75 L 87.96 4.75 Q 87.95 4.54 87.89 4.28 L 87.89 4.28 L 87.89 4.28 Q 87.82 4.03 87.66 3.93 L 87.66 3.93 L 87.66 3.93 Q 87.5 3.84 87.23 3.84 L 87.23 3.84 L 87.08 3.84 L 87.08 3.84 Q 86.87 3.84 86.83 3.82 L 86.83 3.82 L 86.83 3.82 Q 86.79 3.81 86.79 3.72 L 86.79 3.72 L 86.79 3.71 L 86.79 3.71 Q 86.79 3.61 86.93 3.56 L 86.93 3.56 L 86.93 3.56 Q 87.07 3.51 87.49 3.38 L 87.49 3.38 L 87.49 3.38 Q 87.92 3.25 88.37 3.04 L 88.37 3.04 L 88.37 3.04 Q 88.41 3.02 88.54 2.96 L 88.54 2.96 L 88.54 2.96 Q 88.66 2.9 88.75 2.86 L 88.75 2.86 L 88.75 2.86 Q 88.84 2.83 88.91 2.83 L 88.91 2.83 L 88.91 2.83 Q 89.08 2.83 89.08 3.11 L 89.08 3.11 L 89.08 3.11 Q 89.08 3.15 88.99 4.3 L 88.99 4.3 L 88.99 4.3 Q 88.9 5.45 88.9 6.15 L 88.9 6.15 L 88.9 6.15 Q 88.9 7.59 88.89 9.27 L 88.89 9.27 L 88.89 9.27 Q 88.87 10.95 88.87 11.26 L 88.87 11.26 L 88.87 11.26 Q 88.87 12.21 88.96 12.53 L 88.96 12.53 L 88.96 12.53 Q 89.05 12.85 89.36 12.95 L 89.36 12.95 L 89.36 12.95 Q 89.4 12.96 89.6 13 L 89.6 13 L 89.6 13 Q 89.8 13.03 89.88 13.08 L 89.88 13.08 L 89.88 13.08 Q 89.96 13.13 89.96 13.24 L 89.96 13.24 L 89.96 13.24 Q 89.96 13.41 88.89 13.5 L 88.89 13.5 L 88.89 13.5 Q 88.66 13.51 88.37 13.57 L 88.37 13.57 L 88.37 13.57 Q 88.07 13.64 88 13.64 L 88 13.64 L 88 13.64 Q 87.85 13.64 87.85 13.48 L 87.85 13.48 L 87.85 13.48 Q 87.85 13.44 87.83 13.27 L 87.83 13.27 L 87.83 13.27 Q 87.81 13.1 87.81 12.96 L 87.81 12.96 L 87.81 12.96 Q 87.81 12.73 87.68 12.73 L 87.68 12.73 L 87.68 12.73 Q 87.64 12.73 87.48 12.87 L 87.48 12.87 L 87.48 12.87 Q 87.32 13.01 87.11 13.18 L 87.11 13.18 L 87.11 13.18 Q 86.9 13.36 86.5 13.5 L 86.5 13.5 L 86.5 13.5 Q 86.1 13.64 85.64 13.64 L 85.64 13.64 L 85.64 13.64 Q 84.34 13.64 83.61 12.77 L 83.61 12.77 L 83.61 12.77 Q 82.88 11.91 82.88 10.71 Z M 83.89 10.05 L 83.89 10.05 L 83.89 10.05 Q 83.89 11.12 84.54 12.01 L 84.54 12.01 L 84.54 12.01 Q 85.19 12.91 86.21 12.91 L 86.21 12.91 L 86.21 12.91 Q 86.84 12.91 87.36 12.59 L 87.36 12.59 L 87.36 12.59 Q 87.88 12.26 87.88 11.8 L 87.88 11.8 L 87.89 9.41 L 87.89 9.41 Q 87.89 8.55 87.5 8.33 L 87.5 8.33 L 87.5 8.33 Q 86.46 7.71 85.83 7.71 L 85.83 7.71 L 85.83 7.71 Q 84.92 7.71 84.41 8.38 L 84.41 8.38 L 84.41 8.38 Q 83.89 9.04 83.89 10.05 Z" stroke-linecap="round"/>
</g>
<g transform="matrix(2.5174 0 0 2.3836 221.5231 95.7776)" id="4">
<path style="stroke: none; stroke-width: 1; stroke-dasharray: none; stroke-linecap: butt; stroke-dashoffset: 0; stroke-linejoin: miter; stroke-miterlimit: 4; is-custom-font: none; font-file-url: none; fill: rgb(34,196,214); fill-rule: nonzero; opacity: 1;" transform=" translate(-49.5, -49.185)" d="M 39.6 68.87 h 3.22 L 59.4 29.5 h -3.22 L 39.6 68.87 z M 66 29.5 v 4.64 l 15.13 15.03 L 66 64.21 v 4.63 l 19.8 -19.67 L 66 29.5 z M 33 68.84 v -4.63 L 17.87 49.17 L 33 34.14 V 29.5 L 13.2 49.17 L 33 68.84 z" stroke-linecap="round"/>
</g>
</svg>